<svg class="Steps123_steps-line--3__FG2pv" width="32" height="30" viewBox="0 0 32 30" fill="none" xmlns="http://www.w3.org/2000/svg">
  <path fill-rule="evenodd" clip-rule="evenodd" d="M3.71017 9.18148C4.67161 6.68641 5.29532 4.03601 5.88116 1.46303C6.00546 0.908662 5.67582 0.349615 5.14223 0.255954C4.61225 0.12217 4.08028 0.474215 3.95997 0.988498C3.39431 3.48252 2.79868 6.05429 1.87555 8.43172C1.67625 8.93813 1.92367 9.52978 2.42955 9.74213C2.93504 9.95444 3.51048 9.68785 3.71017 9.18148Z" fill="#C8C8C8"></path>
  <path fill-rule="evenodd" clip-rule="evenodd" d="M12.9414 17.9544C17.4834 14.2374 21.5456 9.94627 26.1904 6.32044C26.6225 5.99916 26.7076 5.35992 26.3778 4.92223C26.0476 4.48449 25.4291 4.38253 24.993 4.74389C20.336 8.3685 16.262 12.6585 11.7079 16.3743C11.2813 16.7366 11.2119 17.3772 11.5523 17.816C11.8963 18.2146 12.5148 18.3167 12.9414 17.9544Z" fill="#C8C8C8"></path>
  <path fill-rule="evenodd" clip-rule="evenodd" d="M28.0577 27.2748C25.6816 27.1594 23.3056 27.0438 20.9291 26.9284C20.3876 26.8745 19.9215 27.3141 19.8919 27.8779C19.8627 28.4417 20.2837 28.8883 20.8256 28.9423C23.2057 29.058 25.5852 29.174 27.9649 29.2897C28.5104 29.3036 28.9737 28.8639 29.0001 28.2997C29.0226 27.7757 28.6028 27.2886 28.0577 27.2748Z" fill="#C8C8C8"></path>
</svg>