<svg class="Steps123_steps-line--1__Xv0bz" width="5" height="58" viewBox="0 0 315 29" fill="none" xmlns="http://www.w3.org/2000/svg">
  <path d="M5.25222 26.486C5.50699 26.3795 5.62718 26.0866 5.52066 25.8318C5.41415 25.5771 5.12126 25.4569 4.86649 25.5634L5.25222 26.486ZM14.1636 21.9055C13.9046 22.0013 13.7723 22.2889 13.8681 22.5479C13.9639 22.8069 14.2516 22.9392 14.5105 22.8434L14.1636 21.9055ZM23.9086 19.5716C24.171 19.4857 24.3142 19.2034 24.2283 18.9409C24.1424 18.6785 23.86 18.5353 23.5976 18.6212L23.9086 19.5716ZM33.1438 15.6834C32.8785 15.76 32.7256 16.0373 32.8023 16.3025C32.8789 16.5678 33.1561 16.7207 33.4214 16.6441L33.1438 15.6834ZM43.0287 14.0363C43.2963 13.9682 43.458 13.696 43.3899 13.4284C43.3218 13.1608 43.0496 12.9991 42.782 13.0672L43.0287 14.0363ZM52.4957 10.7501C52.2262 10.8102 52.0565 11.0774 52.1166 11.3469C52.1767 11.6165 52.444 11.7862 52.7135 11.7261L52.4957 10.7501ZM62.4619 9.69351C62.733 9.64083 62.91 9.37838 62.8574 9.10731C62.8047 8.83624 62.5422 8.6592 62.2712 8.71188L62.4619 9.69351ZM72.0969 6.93452C71.8245 6.98022 71.6408 7.23804 71.6865 7.51037C71.7322 7.78271 71.99 7.96643 72.2623 7.92073L72.0969 6.93452ZM82.1049 6.3918C82.3782 6.35266 82.5681 6.09933 82.5289 5.82598C82.4898 5.55262 82.2365 5.36275 81.9631 5.40189L82.1049 6.3918ZM91.8617 4.09968C91.5875 4.13263 91.392 4.3816 91.4249 4.65577C91.4579 4.92994 91.7069 5.12549 91.981 5.09253L91.8617 4.09968ZM101.884 4.01036C102.158 3.98326 102.359 3.73852 102.332 3.46371C102.305 3.1889 102.06 2.98809 101.785 3.01519L101.884 4.01036ZM111.728 2.13722C111.452 2.15875 111.247 2.39938 111.268 2.67468C111.29 2.94998 111.53 3.1557 111.806 3.13417L111.728 2.13722ZM121.742 2.45407C122.017 2.43785 122.228 2.20123 122.211 1.92556C122.195 1.6499 121.959 1.43958 121.683 1.4558L121.742 2.45407ZM131.65 0.962059C131.374 0.973195 131.16 1.2059 131.171 1.48182C131.182 1.75773 131.415 1.97238 131.691 1.96125L131.65 0.962059ZM141.648 1.64832C141.925 1.64208 142.143 1.41322 142.137 1.13714C142.131 0.861073 141.902 0.642331 141.626 0.648572L141.648 1.64832ZM151.606 0.508956C151.33 0.510466 151.107 0.735544 151.108 1.01168C151.11 1.28782 151.335 1.51045 151.611 1.50894L151.606 0.508956ZM161.575 1.53774C161.851 1.54083 162.078 1.31948 162.081 1.04336C162.084 0.767234 161.863 0.54089 161.586 0.537804L161.575 1.53774ZM171.565 0.730653C171.289 0.723082 171.059 0.940719 171.051 1.21676C171.044 1.4928 171.261 1.72271 171.537 1.73028L171.565 0.730653ZM181.495 2.08303C181.771 2.095 182.004 1.88106 182.016 1.60518C182.028 1.32929 181.814 1.09594 181.538 1.08397L181.495 2.08303ZM191.504 1.59518C191.228 1.57886 190.991 1.7891 190.975 2.06476C190.959 2.34042 191.169 2.57711 191.445 2.59343L191.504 1.59518ZM201.385 3.25989C201.66 3.28051 201.9 3.07401 201.921 2.79863C201.941 2.52326 201.735 2.28331 201.459 2.26268L201.385 3.25989ZM211.403 3.08596C211.128 3.06102 210.885 3.26374 210.86 3.53875C210.835 3.81377 211.038 4.05693 211.313 4.08187L211.403 3.08596ZM221.226 5.06005C221.501 5.08935 221.747 4.8905 221.776 4.61592C221.806 4.34133 221.607 4.09499 221.332 4.0657L221.226 5.06005ZM231.246 5.2039C230.972 5.17018 230.722 5.36503 230.688 5.6391C230.655 5.91318 230.849 6.1627 231.123 6.19641L231.246 5.2039ZM241.002 7.49451C241.276 7.53277 241.528 7.34209 241.566 7.06861C241.605 6.79513 241.414 6.54241 241.141 6.50415L241.002 7.49451ZM251.015 7.97193C250.742 7.92895 250.486 8.11524 250.443 8.38802C250.4 8.66079 250.586 8.91676 250.859 8.95974L251.015 7.97193ZM260.69 10.5998C260.962 10.6477 261.221 10.4661 261.269 10.1942C261.317 9.92223 261.136 9.6629 260.864 9.61496L260.69 10.5998ZM270.682 11.4438C270.411 11.3905 270.148 11.567 270.095 11.838C270.042 12.1089 270.218 12.3717 270.489 12.425L270.682 11.4438ZM280.246 14.4493C280.516 14.5083 280.782 14.3375 280.841 14.0677C280.9 13.798 280.729 13.5314 280.46 13.4724L280.246 14.4493ZM290.181 15.7193C289.913 15.6539 289.642 15.8183 289.577 16.0865C289.511 16.3548 289.676 16.6253 289.944 16.6908L290.181 15.7193ZM299.556 19.1733C299.822 19.2461 300.097 19.0892 300.17 18.8229C300.243 18.5565 300.086 18.2815 299.82 18.2087L299.556 19.1733ZM309.441 21.0062C309.178 20.9245 308.898 21.0722 308.816 21.336C308.734 21.5998 308.882 21.8798 309.146 21.9615L309.441 21.0062ZM0.703069 28.4471C2.20562 27.7793 3.72218 27.1257 5.25222 26.486L4.86649 25.5634C3.32975 26.2059 1.80638 26.8625 0.296931 27.5333L0.703069 28.4471ZM14.5105 22.8434C17.5974 21.7014 20.7314 20.6113 23.9086 19.5716L23.5976 18.6212C20.4088 19.6647 17.2628 20.759 14.1636 21.9055L14.5105 22.8434ZM33.4214 16.6441C36.5881 15.7289 39.7918 14.86 43.0287 14.0363L42.782 13.0672C39.5351 13.8935 36.3211 14.7651 33.1438 15.6834L33.4214 16.6441ZM52.7135 11.7261C55.936 11.0071 59.1866 10.33 62.4619 9.69351L62.2712 8.71188C58.9871 9.35008 55.7275 10.0291 52.4957 10.7501L52.7135 11.7261ZM72.2623 7.92073C75.5238 7.37344 78.8057 6.86417 82.1049 6.3918L81.9631 5.40189C78.6563 5.87537 75.3664 6.38586 72.0969 6.93452L72.2623 7.92073ZM91.981 5.09253C95.2694 4.6973 98.5713 4.33694 101.884 4.01036L101.785 3.01519C98.4663 3.34245 95.1573 3.70358 91.8617 4.09968L91.981 5.09253ZM111.806 3.13417C115.112 2.87562 118.425 2.64928 121.742 2.45407L121.683 1.4558C118.36 1.65137 115.04 1.87815 111.728 2.13722L111.806 3.13417ZM131.691 1.96125C135.01 1.82728 138.33 1.72333 141.648 1.64832L141.626 0.648572C138.302 0.723712 134.976 0.827847 131.65 0.962059L131.691 1.96125ZM151.611 1.50894C154.939 1.49075 158.261 1.50071 161.575 1.53774L161.586 0.537804C158.267 0.500715 154.939 0.490733 151.606 0.508956L151.611 1.50894ZM171.537 1.73028C174.87 1.82166 178.19 1.93962 181.495 2.08303L181.538 1.08397C178.228 0.940336 174.902 0.822184 171.565 0.730653L171.537 1.73028ZM191.445 2.59343C194.778 2.79074 198.093 3.01329 201.385 3.25989L201.459 2.26268C198.163 2.0157 194.843 1.79279 191.504 1.59518L191.445 2.59343ZM211.313 4.08187C214.646 4.38424 217.952 4.71073 221.226 5.06005L221.332 4.0657C218.053 3.71582 214.742 3.3888 211.403 3.08596L211.313 4.08187ZM231.123 6.19641C234.456 6.60638 237.75 7.03957 241.002 7.49451L241.141 6.50415C237.883 6.04844 234.583 5.61454 231.246 5.2039L231.123 6.19641ZM250.859 8.95974C254.19 9.48451 257.468 10.0318 260.69 10.5998L260.864 9.61496C257.636 9.04588 254.351 8.49763 251.015 7.97193L250.859 8.95974ZM270.489 12.425C273.815 13.0786 277.069 13.7541 280.246 14.4493L280.46 13.4724C277.276 12.7756 274.014 12.0987 270.682 11.4438L270.489 12.425ZM289.944 16.6908C293.252 17.4981 296.459 18.3266 299.556 19.1733L299.82 18.2087C296.713 17.3594 293.498 16.5287 290.181 15.7193L289.944 16.6908ZM309.146 21.9615C310.749 22.4578 312.316 22.9589 313.843 23.4644L314.157 22.515C312.623 22.0075 311.051 21.5043 309.441 21.0062L309.146 21.9615Z" fill="#C8C8C8"></path>
</svg>