<svg class="Steps123_steps-line--2__Zswq3" width="5" height="58" viewBox="0 0 5 58" fill="none" xmlns="http://www.w3.org/2000/svg">
  <path d="M5.5432 2.71246C5.80337 2.80502 6.08931 2.66915 6.18187 2.40898C6.27443 2.14882 6.13856 1.86287 5.87839 1.77031L5.5432 2.71246ZM15.4952 4.93227C15.231 4.85177 14.9516 5.00065 14.8711 5.2648C14.7906 5.52895 14.9395 5.80834 15.2037 5.88884L15.4952 4.93227ZM24.9565 8.6667C25.2233 8.73782 25.4973 8.57917 25.5684 8.31234C25.6395 8.04552 25.4809 7.77156 25.2141 7.70044L24.9565 8.6667ZM35.0507 10.1658C34.7819 10.1024 34.5127 10.269 34.4493 10.5377C34.386 10.8065 34.5525 11.0758 34.8213 11.1391L35.0507 10.1658ZM44.7534 13.3483C45.0237 13.405 45.2888 13.2319 45.3455 12.9616C45.4022 12.6914 45.229 12.4263 44.9588 12.3696L44.7534 13.3483ZM54.9045 14.3411C54.6331 14.2903 54.3719 14.4692 54.3211 14.7406C54.2703 15.012 54.4492 15.2733 54.7206 15.3241L54.9045 14.3411ZM64.7068 17.0898C64.9792 17.1352 65.2368 16.9512 65.2822 16.6788C65.3277 16.4065 65.1437 16.1488 64.8713 16.1034L64.7068 17.0898ZM74.8765 17.6779C74.6033 17.6374 74.3491 17.826 74.3086 18.0992C74.2681 18.3724 74.4568 18.6266 74.7299 18.6671L74.8765 17.6779ZM84.7822 20.0676C85.056 20.1034 85.307 19.9104 85.3428 19.6366C85.3785 19.3628 85.1856 19.1118 84.9118 19.076L84.7822 20.0676ZM94.9714 20.3063C94.6971 20.275 94.4493 20.4721 94.418 20.7464C94.3867 21.0208 94.5838 21.2686 94.8581 21.2999L94.9714 20.3063ZM104.954 22.3699C105.228 22.3968 105.473 22.1959 105.5 21.9211C105.527 21.6462 105.326 21.4016 105.051 21.3747L104.954 22.3699ZM115.147 22.2852C114.872 22.2625 114.63 22.4673 114.608 22.7425C114.585 23.0177 114.79 23.2592 115.065 23.2818L115.147 22.2852ZM125.18 24.0375C125.456 24.056 125.694 23.8476 125.713 23.5721C125.731 23.2966 125.523 23.0582 125.247 23.0398L125.18 24.0375ZM135.358 23.6402C135.082 23.626 134.847 23.8379 134.833 24.1137C134.819 24.3895 135.031 24.6246 135.306 24.6389L135.358 23.6402ZM145.442 25.0858C145.718 25.0958 145.95 24.8803 145.96 24.6043C145.97 24.3284 145.755 24.0965 145.479 24.0864L145.442 25.0858ZM155.607 24.3769C155.331 24.3712 155.103 24.5903 155.097 24.8664C155.091 25.1425 155.31 25.3709 155.586 25.3767L155.607 24.3769ZM165.735 25.5091C166.011 25.5105 166.236 25.2878 166.238 25.0117C166.239 24.7356 166.017 24.5106 165.74 24.5091L165.735 25.5091ZM175.875 24.4794C175.599 24.4825 175.378 24.7088 175.381 24.9849C175.384 25.2611 175.61 25.4824 175.886 25.4794L175.875 24.4794ZM186.035 25.2828C186.311 25.2751 186.529 25.0452 186.521 24.7691C186.514 24.4931 186.284 24.2755 186.007 24.2832L186.035 25.2828ZM196.134 23.9147C195.858 23.9271 195.645 24.1609 195.657 24.4367C195.669 24.7126 195.903 24.9261 196.179 24.9137L196.134 23.9147ZM206.313 24.3651C206.589 24.3477 206.798 24.1101 206.781 23.8345C206.763 23.5589 206.526 23.3497 206.25 23.3671L206.313 24.3651ZM216.352 22.6324C216.077 22.655 215.872 22.8965 215.895 23.1717C215.917 23.4469 216.159 23.6517 216.434 23.629L216.352 22.6324ZM226.543 22.6952C226.817 22.667 227.017 22.4214 226.989 22.1467C226.961 21.872 226.715 21.6722 226.441 21.7004L226.543 22.6952ZM236.51 20.56C236.236 20.594 236.041 20.8438 236.075 21.1178C236.109 21.3918 236.359 21.5864 236.633 21.5524L236.51 20.56ZM246.696 20.1878C246.969 20.1476 247.158 19.8935 247.118 19.6203C247.078 19.3471 246.824 19.1582 246.55 19.1985L246.696 20.1878ZM256.555 17.6011C256.283 17.648 256.1 17.9066 256.147 18.1787C256.194 18.4509 256.453 18.6334 256.725 18.5865L256.555 17.6011ZM266.71 16.7314C266.981 16.6773 267.157 16.414 267.103 16.1432C267.049 15.8724 266.785 15.6967 266.515 15.7507L266.71 16.7314ZM276.418 13.6279C276.149 13.6897 275.98 13.958 276.042 14.2271C276.104 14.4963 276.372 14.6643 276.641 14.6025L276.418 13.6279ZM286.505 12.1773C286.772 12.1071 286.932 11.8337 286.861 11.5666C286.791 11.2995 286.518 11.1399 286.251 11.2101L286.505 12.1773ZM295.997 8.47155C295.733 8.55088 295.583 8.82961 295.662 9.09412C295.741 9.35862 296.02 9.50872 296.285 9.42939L295.997 8.47155ZM305.96 6.32888C306.221 6.23953 306.361 5.95529 306.271 5.694C306.182 5.43271 305.898 5.29333 305.636 5.38267L305.96 6.32888ZM315.141 1.90999C314.884 2.01033 314.757 2.30022 314.857 2.55749C314.957 2.81476 315.247 2.94197 315.505 2.84163L315.141 1.90999ZM0.818777 0.956237C2.3385 1.54724 3.91406 2.13286 5.5432 2.71246L5.87839 1.77031C4.25781 1.19375 2.69135 0.611504 1.18122 0.024232L0.818777 0.956237ZM15.2037 5.88884C18.3139 6.83667 21.5686 7.76369 24.9565 8.6667L25.2141 7.70044C21.8366 6.80022 18.5933 5.87641 15.4952 4.93227L15.2037 5.88884ZM34.8213 11.1391C38.0379 11.8974 41.3512 12.6346 44.7534 13.3483L44.9588 12.3696C41.5642 11.6575 38.259 10.9221 35.0507 10.1658L34.8213 11.1391ZM54.7206 15.3241C57.983 15.9346 61.3137 16.5237 64.7068 17.0898L64.8713 16.1034C61.4845 15.5384 58.1603 14.9504 54.9045 14.3411L54.7206 15.3241ZM74.7299 18.6671C78.0321 19.1563 81.3845 19.6236 84.7822 20.0676L84.9118 19.076C81.5197 18.6328 78.1729 18.1663 74.8765 17.6779L74.7299 18.6671ZM94.8581 21.2999C98.1877 21.6796 101.554 22.0367 104.954 22.3699L105.051 21.3747C101.657 21.042 98.2958 20.6854 94.9714 20.3063L94.8581 21.2999ZM115.065 23.2818C118.411 23.5576 121.785 23.8099 125.18 24.0375L125.247 23.0398C121.857 22.8125 118.489 22.5606 115.147 22.2852L115.065 23.2818ZM135.306 24.6389C138.668 24.8129 142.048 24.9622 145.442 25.0858L145.479 24.0864C142.09 23.963 138.715 23.8139 135.358 23.6402L135.306 24.6389ZM155.586 25.3767C158.96 25.4473 162.344 25.4918 165.735 25.5091L165.74 24.5091C162.355 24.4918 158.976 24.4474 155.607 24.3769L155.586 25.3767ZM175.886 25.4794C179.267 25.442 182.651 25.3768 186.035 25.2828L186.007 24.2832C182.629 24.377 179.25 24.4421 175.875 24.4794L175.886 25.4794ZM196.179 24.9137C199.562 24.761 202.941 24.5785 206.313 24.3651L206.25 23.3671C202.884 23.5801 199.511 23.7623 196.134 23.9147L196.179 24.9137ZM216.434 23.629C219.816 23.3504 223.186 23.0395 226.543 22.6952L226.441 21.7004C223.091 22.044 219.727 22.3544 216.352 22.6324L216.434 23.629ZM236.633 21.5524C240.007 21.1334 243.363 20.6789 246.696 20.1878L246.55 19.1985C243.225 19.6885 239.876 20.1419 236.51 20.56L236.633 21.5524ZM256.725 18.5865C260.082 18.0079 263.412 17.3899 266.71 16.7314L266.515 15.7507C263.225 16.4075 259.904 17.0239 256.555 17.6011L256.725 18.5865ZM276.641 14.6025C279.968 13.8388 283.257 13.0308 286.505 12.1773L286.251 11.2101C283.014 12.0609 279.734 12.8664 276.418 13.6279L276.641 14.6025ZM296.285 9.42939C299.561 8.44672 302.788 7.4137 305.96 6.32888L305.636 5.38267C302.477 6.46321 299.262 7.49237 295.997 8.47155L296.285 9.42939ZM315.505 2.84163C317.083 2.22596 318.646 1.59607 320.192 0.951773L319.808 0.0286959C318.269 0.669987 316.713 1.29702 315.141 1.90999L315.505 2.84163Z" fill="#C8C8C8"></path>
</svg>